<?xml version="1.0" encoding="utf-8"?>
<!-- Generator: Adobe Illustrator 16.0.0, SVG Export Plug-In . SVG Version: 6.00 Build 0)  -->
<!DOCTYPE svg PUBLIC "-//W3C//DTD SVG 1.1//EN" "http://www.w3.org/Graphics/SVG/1.1/DTD/svg11.dtd">
<svg version="1.1" id="Layer_1" xmlns="http://www.w3.org/2000/svg" xmlns:xlink="http://www.w3.org/1999/xlink" x="0px" y="0px"
	 width="141.73px" height="141.73px" viewBox="0 0 141.73 141.73" enable-background="new 0 0 141.73 141.73" xml:space="preserve">
<path fill="#8968AD" d="M70.864,1.417c-38.355,0-69.447,31.094-69.447,69.449c0,38.354,31.092,69.447,69.447,69.447
	c38.357,0,69.449-31.093,69.449-69.447C140.313,32.511,109.222,1.417,70.864,1.417z M66.872,70.975c0,2.2,1.787,3.991,3.992,3.991
	c2.207,0,3.994-1.791,3.994-3.991h0.006c0-0.021,0-0.04,0.008-0.054h4.719c0,0.014,0,0.033,0,0.054h0.014
	c0,4.824-3.914,8.738-8.74,8.738c-4.824,0-8.736-3.914-8.736-8.738h0.014c0-0.021,0-0.04,0-0.054h4.725c0,0.014,0,0.033,0,0.054
	H66.872z M81.606,70.948c0-0.014,0-0.021,0-0.027h3.615c0,0.007,0,0.014,0,0.027l0,0c0,7.925-6.424,14.348-14.35,14.348
	s-14.348-6.423-14.355-14.342h-0.006l0,0c0-0.013,0-0.026,0-0.033h3.613c0,0.007,0,0.014,0,0.027h0.008
	c0,5.927,4.805,10.731,10.74,10.731C76.802,81.68,81.606,76.875,81.606,70.948L81.606,70.948z M81.606,69.465
	c0.014-7.92,6.436-14.329,14.35-14.329c7.918,0,14.34,6.409,14.354,14.329h-3.613c-0.014-5.922-4.818-10.715-10.74-10.715
	c-5.924,0-10.723,4.793-10.734,10.715H81.606z M29.491,93.246h-4.689V70.921h4.689V93.246z M24.802,69.465
	c0.027-11.594,9.434-20.982,21.027-20.982c11.596,0,21.004,9.389,21.037,20.982h-4.725c-0.027-8.989-7.324-16.258-16.312-16.258
	s-16.283,7.269-16.311,16.258H24.802z M34.972,93.246h-3.639V70.921h3.639V93.246z M31.421,69.465
	c0.02-7.913,6.436-14.322,14.354-14.322c7.914,0,14.336,6.409,14.35,14.322h-3.613c-0.021-5.915-4.82-10.708-10.736-10.708
	c-5.922,0-10.721,4.793-10.74,10.708H31.421z M41.585,93.246H36.89V70.921h4.695V93.246z M45.62,65.478
	c-2.199,0-3.988,1.786-3.994,3.987h-4.744c0.008-4.825,3.92-8.732,8.738-8.732s8.723,3.907,8.736,8.726h0.008l0,0l-4.777,0.007
	v-0.007h0.025C49.599,67.257,47.819,65.478,45.62,65.478z M70.864,92.187c-11.748,0-21.271-9.518-21.277-21.266h4.777
	c0.006,9.106,7.391,16.491,16.5,16.491c9.111,0,16.502-7.385,16.502-16.491h4.779C92.138,82.669,82.616,92.187,70.864,92.187z
	 M104.843,93.246h-4.691V70.921h4.691V93.246z M100.11,69.465c-0.008-2.208-1.793-3.994-3.992-3.994
	c-2.207,0-3.986,1.779-3.994,3.987h0.021l0,0l-4.779,0.007v-0.007h0.014c0.006-4.825,3.912-8.732,8.738-8.732
	c4.824,0,8.738,3.914,8.738,8.739H100.11z M110.323,93.246h-3.641V70.921h3.641V93.246z M95.901,53.207
	c-8.99,0-16.277,7.269-16.311,16.258h-4.719c0.027-11.594,9.434-20.982,21.029-20.982c11.6,0,21.002,9.389,21.035,20.982h-4.723
	C112.187,60.476,104.896,53.207,95.901,53.207z M116.937,93.246h-4.689V70.921h4.689V93.246z"/>
</svg>
