<?xml version="1.0" encoding="utf-8"?>
<!-- Generator: Adobe Illustrator 16.0.0, SVG Export Plug-In . SVG Version: 6.00 Build 0)  -->
<!DOCTYPE svg PUBLIC "-//W3C//DTD SVG 1.1//EN" "http://www.w3.org/Graphics/SVG/1.1/DTD/svg11.dtd">
<svg version="1.1" id="Layer_1" xmlns="http://www.w3.org/2000/svg" xmlns:xlink="http://www.w3.org/1999/xlink" x="0px" y="0px"
	 width="141.73px" height="141.73px" viewBox="0 0 141.73 141.73" enable-background="new 0 0 141.73 141.73" xml:space="preserve">
<path fill="#372646" d="M70.864,1.417c-38.355,0-69.448,31.094-69.448,69.449c0,38.354,31.093,69.447,69.448,69.447
	c38.357,0,69.449-31.093,69.449-69.447C140.313,32.511,109.222,1.417,70.864,1.417z M66.872,70.975c0,2.2,1.786,3.991,3.992,3.991
	c2.207,0,3.993-1.791,3.993-3.991h0.007c0-0.021,0-0.04,0.007-0.054h4.719c0,0.014,0,0.033,0,0.054h0.014
	c0,4.824-3.913,8.738-8.739,8.738c-4.825,0-8.737-3.914-8.737-8.738h0.014c0-0.021,0-0.04,0-0.054h4.725c0,0.014,0,0.033,0,0.054
	H66.872z M81.605,70.948c0-0.014,0-0.021,0-0.027h3.615c0,0.007,0,0.014,0,0.027l0,0c0,7.925-6.424,14.348-14.35,14.348
	c-7.925,0-14.348-6.423-14.354-14.342H56.51l0,0c0-0.013,0-0.026,0-0.033h3.614c0,0.007,0,0.014,0,0.027h0.007
	c0,5.927,4.805,10.731,10.74,10.731C76.802,81.68,81.605,76.875,81.605,70.948L81.605,70.948z M81.605,69.465
	c0.014-7.92,6.437-14.329,14.35-14.329c7.918,0,14.341,6.409,14.354,14.329h-3.614c-0.014-5.922-4.818-10.715-10.74-10.715
	c-5.924,0-10.722,4.793-10.734,10.715H81.605z M29.49,93.246h-4.689V70.921h4.689V93.246z M24.801,69.465
	c0.027-11.594,9.435-20.982,21.028-20.982c11.595,0,21.003,9.389,21.036,20.982h-4.725c-0.027-8.989-7.324-16.258-16.312-16.258
	c-8.988,0-16.284,7.269-16.312,16.258H24.801z M34.972,93.246h-3.64V70.921h3.64V93.246z M31.42,69.465
	c0.021-7.913,6.437-14.322,14.354-14.322c7.913,0,14.336,6.409,14.35,14.322H56.51c-0.021-5.915-4.82-10.708-10.735-10.708
	c-5.922,0-10.721,4.793-10.741,10.708H31.42z M41.585,93.246h-4.696V70.921h4.696V93.246z M45.619,65.478
	c-2.199,0-3.987,1.786-3.994,3.987h-4.743c0.007-4.825,3.919-8.732,8.737-8.732c4.819,0,8.724,3.907,8.737,8.726h0.007l0,0
	l-4.777,0.007v-0.007h0.026C49.599,67.257,47.818,65.478,45.619,65.478z M70.864,92.187c-11.749,0-21.271-9.518-21.278-21.266h4.777
	c0.007,9.106,7.392,16.491,16.501,16.491c9.111,0,16.501-7.385,16.501-16.491h4.779C92.138,82.669,82.615,92.187,70.864,92.187z
	 M104.842,93.246h-4.691V70.921h4.691V93.246z M100.109,69.465c-0.007-2.208-1.792-3.994-3.991-3.994
	c-2.208,0-3.987,1.779-3.994,3.987h0.021l0,0l-4.779,0.007v-0.007h0.014c0.007-4.825,3.912-8.732,8.739-8.732
	c4.824,0,8.737,3.914,8.737,8.739H100.109z M110.323,93.246h-3.642V70.921h3.642V93.246z M95.901,53.207
	c-8.99,0-16.278,7.269-16.312,16.258h-4.719c0.027-11.594,9.435-20.982,21.03-20.982c11.6,0,21.001,9.389,21.034,20.982h-4.723
	C112.186,60.476,104.896,53.207,95.901,53.207z M116.936,93.246h-4.689V70.921h4.689V93.246z"/>
</svg>
