<?xml version="1.0" encoding="utf-8"?>
<!-- Generator: Adobe Illustrator 16.0.0, SVG Export Plug-In . SVG Version: 6.00 Build 0)  -->
<!DOCTYPE svg PUBLIC "-//W3C//DTD SVG 1.1//EN" "http://www.w3.org/Graphics/SVG/1.1/DTD/svg11.dtd">
<svg version="1.1" id="Layer_1" xmlns="http://www.w3.org/2000/svg" xmlns:xlink="http://www.w3.org/1999/xlink" x="0px" y="0px"
	 width="141.73px" height="28.346px" viewBox="0 0 141.73 28.346" enable-background="new 0 0 141.73 28.346" xml:space="preserve">
<g>
	<g>
		<g>
			<path fill="#FFFFFF" d="M10.163,19.622c-0.115,0-0.209-0.094-0.209-0.209V11.77l-2.582,7.71c-0.031,0.085-0.109,0.143-0.2,0.143
				H5.929c-0.088,0-0.169-0.058-0.196-0.143l-2.585-7.71v7.644c0,0.115-0.091,0.209-0.206,0.209H1.626
				c-0.115,0-0.209-0.094-0.209-0.209V8.934c0-0.115,0.094-0.209,0.209-0.209h2.082c0.088,0,0.17,0.058,0.197,0.146l2.64,8.128
				L9.202,8.87c0.027-0.088,0.106-0.146,0.197-0.146h2.078c0.113,0,0.207,0.094,0.207,0.209v10.479c0,0.115-0.094,0.209-0.207,0.209
				H10.163z"/>
		</g>
		<g>
			<path fill="#FFFFFF" d="M23.072,19.622c-0.112,0-0.206-0.094-0.206-0.209V8.934c0-0.115,0.094-0.209,0.206-0.209h1.394
				c0.115,0,0.207,0.094,0.207,0.209v10.479c0,0.115-0.092,0.209-0.207,0.209H23.072z"/>
		</g>
		<g>
			<path fill="#FFFFFF" d="M42.867,19.622c-0.067,0-0.13-0.033-0.17-0.088l-2.93-4.198l-2.948,4.198
				c-0.039,0.055-0.104,0.088-0.17,0.088h-1.703c-0.076,0-0.148-0.042-0.182-0.112c-0.037-0.072-0.031-0.154,0.015-0.218
				l3.933-5.397l-3.533-4.84c-0.045-0.063-0.051-0.146-0.016-0.215c0.035-0.07,0.107-0.115,0.186-0.115h1.689
				c0.068,0,0.135,0.033,0.172,0.091l2.543,3.63l2.551-3.63c0.039-0.058,0.104-0.091,0.17-0.091h1.697
				c0.078,0,0.148,0.045,0.184,0.115c0.034,0.069,0.027,0.154-0.018,0.215l-3.551,4.84l3.951,5.397
				c0.045,0.063,0.055,0.146,0.018,0.215c-0.033,0.073-0.105,0.115-0.185,0.115H42.867z"/>
		</g>
		<g>
			<path fill="#FFFFFF" d="M57.479,19.622c-0.115,0-0.209-0.094-0.209-0.209v-9.028h-3.229c-0.112,0-0.206-0.094-0.206-0.209V8.934
				c0-0.115,0.094-0.209,0.206-0.209h8.3c0.115,0,0.207,0.094,0.207,0.209v1.242c0,0.115-0.092,0.209-0.207,0.209h-3.258v9.028
				c0,0.115-0.094,0.209-0.209,0.209H57.479z"/>
		</g>
		<g>
			<path fill="#FFFFFF" d="M80.147,19.622c-0.087,0-0.163-0.055-0.193-0.137l-0.988-2.797c-0.163-0.464-0.43-0.83-0.809-1.118
				c-0.38-0.291-0.801-0.431-1.291-0.431h-2.357v4.273c0,0.115-0.094,0.209-0.209,0.209h-1.385c-0.115,0-0.209-0.094-0.209-0.209
				V8.934c0-0.115,0.094-0.209,0.209-0.209h4.636c0.827,0,1.519,0.085,2.049,0.245c0.562,0.173,1.023,0.536,1.372,1.079
				c0.346,0.536,0.518,1.148,0.518,1.824c0,0.772-0.227,1.428-0.678,1.952c-0.344,0.394-0.781,0.688-1.314,0.875
				c0.547,0.343,0.98,0.942,1.297,1.791l1.05,2.852c0.024,0.064,0.017,0.134-0.024,0.191c-0.038,0.055-0.102,0.088-0.168,0.088
				H80.147z M77.397,13.479c0.814,0,1.405-0.125,1.756-0.37c0.331-0.233,0.494-0.637,0.494-1.236c0-0.679-0.212-1.582-2.039-1.582
				h-3.1v3.188H77.397z"/>
		</g>
		<g>
			<path fill="#FFFFFF" d="M92.567,19.622c-0.115,0-0.211-0.094-0.211-0.209V8.934c0-0.115,0.096-0.209,0.211-0.209h7.568
				c0.113,0,0.207,0.094,0.207,0.209v1.242c0,0.115-0.094,0.209-0.207,0.209H94.16v2.788h5.577c0.111,0,0.205,0.094,0.205,0.206
				v1.246c0,0.115-0.094,0.206-0.205,0.206H94.16v3.134h6.22c0.115,0,0.206,0.091,0.206,0.206v1.242
				c0,0.115-0.091,0.209-0.206,0.209H92.567z"/>
		</g>
		<g>
			<path fill="#FFFFFF" d="M118.452,19.622c-0.084,0-0.163-0.055-0.193-0.133l-1.164-3.056h-4.1l-1.113,3.052
				c-0.025,0.082-0.105,0.137-0.193,0.137h-1.467c-0.068,0-0.133-0.033-0.172-0.091c-0.037-0.055-0.046-0.127-0.021-0.191
				l4.027-10.482c0.03-0.078,0.105-0.133,0.193-0.133h1.492c0.084,0,0.16,0.051,0.193,0.13l4.273,10.482
				c0.027,0.063,0.018,0.137-0.019,0.194c-0.04,0.058-0.103,0.091-0.173,0.091H118.452z M116.528,14.916l-1.539-4.058l-1.467,4.058
				H116.528z"/>
		</g>
		<g>
			<path fill="#FFFFFF" d="M138.79,19.622c-0.113,0-0.207-0.094-0.207-0.209V11.77l-2.584,7.71
				c-0.027,0.085-0.107,0.143-0.197,0.143h-1.242c-0.091,0-0.17-0.058-0.197-0.143l-2.584-7.71v7.644
				c0,0.115-0.094,0.209-0.207,0.209h-1.314c-0.115,0-0.209-0.094-0.209-0.209V8.934c0-0.115,0.094-0.209,0.209-0.209h2.079
				c0.087,0,0.169,0.058,0.196,0.146l2.643,8.128l2.652-8.128c0.029-0.088,0.109-0.146,0.199-0.146h2.082
				c0.112,0,0.206,0.094,0.206,0.209v10.479c0,0.115-0.094,0.209-0.206,0.209H138.79z"/>
		</g>
	</g>
	<g>
		<path fill="#FFFFFF" d="M119.339,1.849c0,0.281-0.232,0.512-0.51,0.512H22.905c-0.281,0-0.512-0.23-0.512-0.512l0,0
			c0-0.282,0.23-0.51,0.512-0.51h95.924C119.106,1.339,119.339,1.566,119.339,1.849L119.339,1.849z"/>
		<path fill="#FFFFFF" d="M119.339,26.498c0,0.282-0.232,0.509-0.51,0.509H22.905c-0.281,0-0.512-0.227-0.512-0.509l0,0
			c0-0.282,0.23-0.509,0.512-0.509h95.924C119.106,25.989,119.339,26.216,119.339,26.498L119.339,26.498z"/>
	</g>
</g>
</svg>
