<?xml version="1.0" encoding="utf-8"?>
<!-- Generator: Adobe Illustrator 16.0.0, SVG Export Plug-In . SVG Version: 6.00 Build 0)  -->
<!DOCTYPE svg PUBLIC "-//W3C//DTD SVG 1.1//EN" "http://www.w3.org/Graphics/SVG/1.1/DTD/svg11.dtd">
<svg version="1.1" id="Layer_1" xmlns="http://www.w3.org/2000/svg" xmlns:xlink="http://www.w3.org/1999/xlink" x="0px" y="0px"
	 width="141.73px" height="28.346px" viewBox="0 0 141.73 28.346" enable-background="new 0 0 141.73 28.346" xml:space="preserve">
<path fill="#8968AD" d="M137.154,13.601h0.004l-3.153-0.283h-0.016l-0.004,0.001l-3.146,0.246l-3.143-0.379
	c-0.016-0.002-0.033-0.002-0.049,0l-0.006,0.001l-3.118,0.44l-3.111-0.636c-0.041-0.009-0.086-0.009-0.13,0.004l-0.007,0.002
	l-3.065,0.833l-3.053-1.027c-0.08-0.026-0.168-0.026-0.252,0.006l-0.01,0.004l-2.994,1.166l-2.972-1.502
	c-0.146-0.074-0.328-0.067-0.474,0.031l-0.01,0.007l-2.844,1.952l-2.83-2.478c-0.001-0.001-0.005-0.004-0.006-0.005
	c-0.234-0.198-0.585-0.17-0.783,0.064l-0.007,0.008l-2.67,3.151l-2.67-3.994c-0.056-0.084-0.134-0.157-0.228-0.21
	c-0.318-0.177-0.719-0.062-0.896,0.256l-0.006,0.011l-2.519,4.536l-2.522-5.45c-0.078-0.167-0.218-0.308-0.401-0.384
	c-0.39-0.162-0.836,0.023-0.998,0.413l-0.004,0.01l-2.313,5.582l-2.475-6.547c-0.091-0.237-0.286-0.436-0.547-0.52
	c-0.456-0.146-0.945,0.104-1.092,0.562L82.635,9.48l-2.258,7.02l-2.3-8.395c-0.091-0.329-0.355-0.601-0.711-0.683
	c-0.518-0.118-1.032,0.205-1.151,0.722l-0.001,0.005l-2.144,9.343l-2.254-11.53c-0.076-0.389-0.38-0.712-0.792-0.792
	c-0.543-0.106-1.069,0.249-1.176,0.792L67.6,17.492l-2.144-9.343l-0.001-0.007c-0.077-0.332-0.329-0.612-0.682-0.709
	c-0.512-0.14-1.039,0.161-1.179,0.672l-2.299,8.4L59.04,9.48l-0.004-0.012c-0.081-0.246-0.271-0.454-0.534-0.547
	c-0.45-0.16-0.945,0.075-1.105,0.526l-2.323,6.542l-2.468-5.609l-0.005-0.011c-0.072-0.163-0.202-0.302-0.377-0.383
	c-0.381-0.176-0.833-0.01-1.01,0.371l-2.521,5.453l-2.52-4.539l-0.007-0.014c-0.049-0.087-0.119-0.164-0.208-0.224
	c-0.301-0.201-0.707-0.12-0.908,0.181l-2.67,3.997l-2.673-3.154l-0.009-0.01l-0.004-0.005c-0.201-0.23-0.55-0.253-0.779-0.052
	l-2.832,2.478l-2.844-1.952l-0.01-0.007c-0.135-0.092-0.314-0.11-0.47-0.031l-2.968,1.502l-2.985-1.167l-0.01-0.004
	c-0.078-0.029-0.166-0.034-0.251-0.006L23.5,13.832l-3.059-0.833l-0.009-0.003c-0.041-0.011-0.084-0.013-0.127-0.004l-3.11,0.637
	l-3.118-0.441l-0.006-0.001c-0.016-0.002-0.032-0.002-0.048,0l-3.138,0.379l-3.143-0.247H7.739H7.725l-3.152,0.282l-3.156,0.019
	l3.158,0.094h0.003h0.002l3.149-0.169l3.145,0.354c0.009,0.001,0.02,0.001,0.029,0h0.005l3.13-0.294l3.127,0.527
	c0.025,0.004,0.053,0.004,0.079-0.001l0.007-0.001l3.093-0.547l3.074,0.926c0.06,0.018,0.125,0.019,0.188-0.001l0.008-0.002
	l3.029-0.933l3.011,1.27c0.104,0.044,0.228,0.045,0.338-0.007l0.011-0.005l2.915-1.379l2.906,2.097
	c0.186,0.134,0.444,0.131,0.627-0.023l0.009-0.007l2.745-2.311l2.768,3.396c0.034,0.042,0.076,0.082,0.122,0.114
	c0.272,0.189,0.646,0.122,0.836-0.15l0.007-0.009l2.584-3.712l2.604,4.878c0.068,0.129,0.178,0.237,0.319,0.305
	c0.354,0.17,0.776,0.021,0.945-0.333l0.005-0.009l2.467-5.148l2.541,5.997c0.085,0.2,0.251,0.368,0.471,0.449
	c0.424,0.155,0.894-0.062,1.05-0.485l0.003-0.01l2.22-6.047l2.352,7.536c0.09,0.281,0.316,0.52,0.621,0.605
	c0.483,0.137,0.987-0.146,1.124-0.629l0.002-0.007l2.173-7.691l2.305,10.174c0.083,0.365,0.373,0.667,0.765,0.745
	c0.531,0.104,1.047-0.24,1.151-0.771l0.001-0.003l2.195-11.087l2.197,11.088v0.004c0.073,0.367,0.355,0.676,0.745,0.765
	c0.528,0.119,1.054-0.212,1.173-0.74l2.305-10.171l2.173,7.689l0.004,0.013c0.082,0.284,0.302,0.522,0.604,0.617
	c0.481,0.15,0.993-0.118,1.144-0.6l2.376-7.608l2.393,6.135l0.005,0.012c0.08,0.203,0.24,0.374,0.46,0.462
	c0.42,0.167,0.898-0.038,1.065-0.459l2.362-5.93l2.445,5.097l0.005,0.01c0.063,0.132,0.168,0.246,0.307,0.319
	c0.347,0.186,0.777,0.055,0.963-0.291l2.605-4.873l2.583,3.707l0.008,0.012c0.031,0.044,0.068,0.084,0.112,0.12
	c0.259,0.211,0.639,0.172,0.85-0.086l2.766-3.395l2.742,2.309l0.009,0.008c0.176,0.147,0.436,0.163,0.63,0.023l2.908-2.096
	l2.919,1.378l0.012,0.005c0.104,0.049,0.225,0.055,0.338,0.007l3.02-1.27l3.036,0.932l0.008,0.003c0.06,0.018,0.125,0.02,0.188,0
	l3.082-0.926l3.094,0.547l0.008,0.001c0.025,0.005,0.052,0.005,0.078,0l3.128-0.527l3.136,0.294h0.006
	c0.009,0.001,0.019,0.001,0.028,0l3.146-0.354l3.151,0.169h0.003h0.002l3.159-0.095L137.154,13.601z"/>
</svg>
