<?xml version="1.0" encoding="utf-8"?>
<!-- Generator: Adobe Illustrator 16.0.0, SVG Export Plug-In . SVG Version: 6.00 Build 0)  -->
<!DOCTYPE svg PUBLIC "-//W3C//DTD SVG 1.1//EN" "http://www.w3.org/Graphics/SVG/1.1/DTD/svg11.dtd">
<svg version="1.1" id="Layer_1" xmlns="http://www.w3.org/2000/svg" xmlns:xlink="http://www.w3.org/1999/xlink" x="0px" y="0px"
	 width="56.69px" height="56.69px" viewBox="0 0 56.69 56.69" enable-background="new 0 0 56.69 56.69" xml:space="preserve">
<g>
	<path fill="none" stroke="#FFFFFF" stroke-width="2" stroke-linejoin="round" stroke-miterlimit="10" d="M47.39,9.301l-19.04,19.05
		L9.3,9.301c4.88-4.87,11.61-7.881,19.05-7.881C35.779,1.42,42.52,4.431,47.39,9.301z"/>
	<path fill="none" stroke="#FFFFFF" stroke-width="2" stroke-linejoin="round" stroke-miterlimit="10" d="M55.27,28.34
		c0,7.44-3.02,14.181-7.89,19.041c-4.87,4.879-11.601,7.89-19.03,7.89c-7.439,0-14.16-3.011-19.04-7.89
		c-4.87-4.86-7.89-11.601-7.89-19.041c0-7.439,3.01-14.159,7.88-19.039l19.05,19.05l19.04-19.05
		C52.26,14.181,55.27,20.9,55.27,28.34z"/>
</g>
</svg>
